<svg xmlns="http://www.w3.org/2000/svg" width="377" height="92" viewBox="0 0 377 92">
    <defs>
        <linearGradient id="a" x1="77.385%" x2="26.435%" y1="132.316%" y2="0%">
            <stop offset="0%" stop-color="#B8FFF8" stop-opacity="0"/>
            <stop offset="100%" stop-color="#82FFEE" stop-opacity=".493"/>
        </linearGradient>
    </defs>
    <g fill="none" fill-rule="evenodd" stroke-linecap="round" stroke-linejoin="round" transform="translate(.898 .447)">
        <path stroke="#FFF" stroke-width="2" d="M46.966 95.16h-2.032C35.451 95.16 28 87.455 28 78.163c0-9.519 7.677-16.998 16.934-16.998 5.419 0 10.386 2.72 13.547 6.8M257.443 72.265c-.263-1.103-.514-2.02-.592-3.137-.546-7.813 5.326-14.392 12.925-14.924 7.784-.544 14.342 5.353 14.875 12.98.182 2.605-.403 4.889-1.372 7.013M206.47 73.99c2.031-7.026 8.579-12.238 16.256-12.238 7.225 0 13.321 4.306 15.805 10.651"/>
        <path stroke="#FFF" stroke-width="2" d="M180.47 65.99c2.031-7.026 8.579-12.238 16.256-12.238 7.225 0 13.321 4.306 15.805 10.651M185.697 71.817c2.483-1.36 5.419-2.266 8.354-2.266 9.483 0 16.934 7.705 16.934 16.997 0 9.519-7.677 16.998-16.934 16.998-7.225 0-13.547-4.76-16.031-11.105M348.697 87.817c2.483-1.36 5.419-2.266 8.354-2.266 9.483 0 16.934 7.705 16.934 16.997 0 9.519-7.677 16.998-16.934 16.998-7.225 0-13.547-4.76-16.031-11.105"/>
        <path fill="url(#a)" fill-rule="nonzero" stroke="#FFF" stroke-width="2" d="M153.957 77.537c1.355-7.933 8.355-14.052 16.709-14.052 9.483 0 16.934 7.706 16.934 16.998 0 9.518-7.677 16.997-16.934 16.997-4.516 0-8.58-1.813-11.515-4.532"/>
        <path stroke="#FFF" stroke-width="2" d="M102.771 46.582c-.534-1.56-1.08-3.348-1.175-5.158-.498-9.506 6.777-17.376 16.022-17.86 9.47-.497 17.314 6.808 17.8 16.087.214 4.074-1.163 8.004-3.264 11.065"/>
        <path stroke="#FFF" stroke-width="2" d="M116.96 53.686c2.936-2.04 6.322-3.4 10.16-3.4 9.484 0 16.935 7.706 16.935 16.998 0 .907 0 1.813-.226 2.72M74.738 94.48c-3.161 4.533-8.354 7.706-14.225 7.706-9.483 0-16.934-7.706-16.934-16.998 0-9.518 7.677-16.997 16.934-16.997 2.033 0 4.065.453 5.87.906M85.238 65.37c-.25-8.86 6.425-16.626 15.183-17.547 9.431-.991 17.647 5.893 18.618 15.134.308 2.93-.081 5.706-1.168 8.327"/>
        <path stroke="#FFF" stroke-width="2" d="M125.314 77.483c2.936-4.76 8.355-7.932 14.45-7.932 9.484 0 16.935 7.705 16.935 16.997 0 9.519-7.677 16.998-16.934 16.998-6.096 0-11.515-3.173-14.45-7.933"/>
        <path fill="url(#a)" fill-rule="nonzero" stroke="#FFF" stroke-width="2" d="M263.27 95.387c-2.935 4.986-8.353 8.385-14.675 8.385-9.484 0-16.935-7.705-16.935-16.997 0-9.519 7.677-16.998 16.935-16.998 7.676 0 14.224 5.213 16.482 12.465"/>
        <ellipse cx="279.753" cy="91.081" fill="#FFF" fill-opacity=".3" fill-rule="nonzero" stroke="#FFF" stroke-width="2" rx="16.934" ry="16.997"/>
        <path fill="url(#a)" stroke="#FFF" stroke-width="2" d="M91.93 92.041c-3.161 3.853-7.903 6.346-13.321 6.346-9.484 0-16.935-7.706-16.935-16.998 0-9.518 7.677-16.997 16.935-16.997 8.58 0 15.579 6.346 16.934 14.504"/>
        <path fill="#FFF" fill-opacity=".3" fill-rule="nonzero" stroke="#FFF" stroke-width="2" d="M128.024 86.775c0 9.518-7.677 16.997-16.934 16.997-9.483 0-16.934-7.705-16.934-16.997 0-4.08 1.355-7.706 3.838-10.652 3.161-3.853 7.903-6.346 13.322-6.346 9.031-.226 16.708 7.48 16.708 16.998z"/>
        <path fill="url(#a)" fill-rule="nonzero" stroke="#FFF" stroke-width="2" d="M34.024 97.775c0 9.518-7.677 16.997-16.934 16.997-9.483 0-16.934-7.705-16.934-16.997 0-4.08 1.355-7.706 3.838-10.652 3.161-3.853 7.903-6.346 13.322-6.346 9.031-.226 16.708 7.48 16.708 16.998z"/>
        <g fill="#FFF" fill-rule="nonzero" stroke="#FFF" stroke-width="2">
            <path d="M118.476 7v3.4M99.51 13.12l2.032 2.719M87.995 29.21l3.16 1.133M145.57 30.343l3.387-1.133M135.184 15.839l2.032-2.72"/>
        </g>
        <g fill="#FFF" fill-rule="nonzero" stroke="#FFF" stroke-width="2">
            <path d="M270.934 43.196v2M257.934 47.196l.9 2M250.934 58.196l2 .5M287.934 58.696l2-.5M281.934 49.196l.9-2"/>
        </g>
        <path fill="url(#a)" stroke="#FFF" stroke-width="2" d="M297.24 91.457c-.227-1.36-.452-2.493-.452-3.853 0-9.518 7.676-16.997 16.934-16.997 9.483 0 16.934 7.706 16.934 16.997 0 3.173-.903 5.893-2.258 8.386"/>
        <g stroke="#82FFEE" stroke-width="1.5">
            <path d="M321.557 64.727l7.371 27.51-21.555-3.675z"/>
            <path fill="#82FFEE" fill-opacity=".3" fill-rule="nonzero" d="M324.156 74.426l-9.35 15.358 14.122 2.453z"/>
            <path fill="#82FFEE" fill-opacity=".3" fill-rule="nonzero" d="M321.557 64.727l7.371 27.51 16.83-13.96z"/>
            <path d="M324.156 74.426l15.775 8.626-11.003 9.185z"/>
            <path d="M336.3 119.747l-7.372-27.51 21.602 3.851z"/>
            <path fill="#82FFEE" fill-opacity=".3" fill-rule="nonzero" d="M333.7 110.048l9.35-15.358-14.122-2.453z"/>
            <path d="M307.373 88.562l4.773 17.811 16.782-14.136zM328.928 92.237l16.83-13.96 4.772 17.811z"/>
            <path d="M314.807 89.784l3.118 11.639 11.003-9.186zM339.931 83.052l3.119 11.638-14.122-2.453z"/>
        </g>
    </g>
</svg>
