<svg xmlns="http://www.w3.org/2000/svg" width="29" height="29" viewBox="0 0 29 29">
    <g fill="none" fill-rule="evenodd" stroke="#82FFEE" stroke-linecap="round" stroke-linejoin="round">
        <path d="M11.227 10.945L4.651 8.773l4.173 15.343c.294.044.71.092 1.004.136l1.4-13.307zM18.017 13.38l-7.031 11.192c.328.118.591.173.912.364l12.868-9.014-6.75-2.543z"/>
        <path d="M16.465 7.51L9.751 5.04l1.476 5.905zM23.255 9.943l-6.79-2.434 1.552 5.87z"/>
        <path fill="#82FFEE" fill-opacity=".3" fill-rule="nonzero" d="M9.778 24.266c.404.083.813.17 1.21.3l7.104-11.222-6.79-2.434-1.524 13.356z"/>
        <path d="M18.017 13.38l-1.552-5.87-5.238 3.435z"/>
        <path fill="#82FFEE" fill-opacity=".3" fill-rule="nonzero" d="M24.766 15.922l-1.511-5.979-5.238 3.436zM9.75 5.04L4.693 8.664l6.535 2.281z"/>
    </g>
</svg>
