<svg xmlns="http://www.w3.org/2000/svg" width="6" height="6" viewBox="0 0 6 6">
    <g fill="#6F41E8" fill-rule="evenodd">
        <text font-family="Sailec-Medium, Sailec" font-size="14" font-weight="400" transform="translate(-9 -13)">
            <tspan x="0" y="11">+ 30</tspan>
        </text>
        <path d="M5.446 2.009A.548.548 0 0 0 6 1.467V0H4.473a.548.548 0 0 0-.554.542v.482c0 .544-.423 1.012-.979 1.012s-1.035-.468-1.035-1.012V.522A.528.528 0 0 0 1.37 0H0v6h1.36a.54.54 0 0 0 .545-.533v-.452c0-.573.432-1.054.989-1.054.556.002 1.025.46 1.025 1.005v.496c0 .297.246.538.55.538H6V4.517a.544.544 0 0 0-.55-.538h-.457c-.557 0-1.074-.441-1.074-.985a1 1 0 0 1 1.01-.985h.517z"/>
    </g>
</svg>
