<svg xmlns="http://www.w3.org/2000/svg" width="62" height="23" viewBox="0 0 62 23">
    <g fill="#FFF" fill-rule="evenodd">
        <path d="M11.134 11.695a2.287 2.287 0 0 1 .156-3.013L19.788 0h-4.167L4.74 11.33a.838.838 0 0 1-.934.198.838.838 0 0 1-.534-.791V0H.102v23h3.17v-5.133c0-.674.273-1.336.746-1.817l1.855-1.883c.456-.464 1.101-.68 1.736-.673a2.261 2.261 0 0 1 1.649.856L16.112 23h3.99l-8.968-11.305zM29.102 23h3V0h-3zM58.077 0v15.035c0 .41-.264.65-.511.739a.736.736 0 0 1-.843-.256L44.87 0h-2.767v23h3.024V7.544a.76.76 0 0 1 .51-.737.735.735 0 0 1 .844.255L58.676 23h2.426V0h-3.025z"/>
    </g>
</svg>
