<?xml version="1.0" encoding="UTF-8"?>
<svg width="200px" height="114px" viewBox="0 0 200 114" version="1.1" xmlns="http://www.w3.org/2000/svg" xmlns:xlink="http://www.w3.org/1999/xlink">
    <!-- Generator: Sketch 52 (66869) - http://www.bohemiancoding.com/sketch -->
    <title>kin_swelly_logo</title>
    <desc>Created with Sketch.</desc>
    <g id="Android" stroke="none" stroke-width="1" fill="none" fill-rule="evenodd">
        <g id="12_transaction-copy-13" transform="translate(-80.000000, -113.000000)">
            <g id="Group-2" transform="translate(80.000000, 113.000000)">
                <g id="Kin_ecosystem_logo">
                    <path d="M62.0811847,20.775743 L69.9999128,20.775743 C78.9560385,20.775743 83.649245,21.9926165 87.9218874,24.2776507 C92.1945298,26.5626849 95.5477246,29.9158796 97.8327587,34.188522 C100.117793,38.4611644 101.334666,43.1543709 101.334666,52.1104966 L101.334666,60.0292247 C101.334666,68.9853503 100.117793,73.6785569 97.8327587,77.9511993 C95.5477246,82.2238417 92.1945298,85.5770364 87.9218874,87.8620706 C83.649245,90.1471047 78.9560385,91.3639783 69.9999128,91.3639783 L62.0811847,91.3639783 C53.1250591,91.3639783 48.4318525,90.1471047 44.1592101,87.8620706 C39.8865678,85.5770364 36.533373,82.2238417 34.2483388,77.9511993 C31.9633047,73.6785569 30.7464311,68.9853503 30.7464311,60.0292247 L30.7464311,52.1104966 C30.7464311,43.1543709 31.9633047,38.4611644 34.2483388,34.188522 C36.533373,29.9158796 39.8865678,26.5626849 44.1592101,24.2776507 C48.4318525,21.9926165 53.1250591,20.775743 62.0811847,20.775743 Z" id="Rectangle-2" fill="#0000FF" transform="translate(66.040549, 56.069861) rotate(-225.000000) translate(-66.040549, -56.069861) "></path>
                    <path d="M73.4903936,51.7058858 L75.6433983,51.7058858 C76.9166807,51.7058858 77.9485355,50.6667078 77.9485355,49.3854154 L77.9485355,43.1054188 L71.597833,43.1054188 C70.3245506,43.1054188 69.2926958,44.1437649 69.2926958,45.4250572 L69.2926958,47.4892691 C69.2926958,49.8180596 67.5332511,51.823199 65.2190191,51.823199 C62.9047871,51.823199 60.9121828,49.8180596 60.9121828,47.4892691 L60.9121828,45.3418564 C60.9121828,44.1063245 59.9167075,43.1054188 58.6897264,43.1054188 L52.9880672,43.1054188 L52.9880672,68.7911707 L58.6434252,68.7911707 C59.8968642,68.7911707 60.9121828,67.7686329 60.9121828,66.5081407 L60.9121828,64.574554 C60.9121828,62.1209624 62.7113143,60.0609105 65.0255463,60.0609105 L65.0255463,60.0692306 C67.3397783,60.0692306 69.2926958,62.0352655 69.2926958,64.363224 L69.2926958,66.4890045 C69.2926958,67.7603128 70.3162826,68.7911707 71.5796432,68.7911707 L77.9485355,68.7911707 L77.9485355,62.4404534 C77.9485355,61.1699772 76.9241219,60.1391192 75.6607612,60.1391192 L73.758279,60.1391192 C71.4440469,60.1391192 69.2926958,58.251293 69.2926958,55.9225025 L69.3009639,55.9225025 C69.3009639,53.5937121 71.1761616,51.7058858 73.4903936,51.7058858" id="Fill-51" fill="#FFFFFF"></path>
                    <circle id="Oval" fill="#00CDB7" fill-rule="nonzero" cx="133" cy="57" r="39"></circle>
                    <path d="M165.998662,56.9420806 C165.985457,57.102526 165.925483,57.7714172 165.925483,57.7714172 C165.752716,59.8256713 163.317466,63.1441242 161.308083,62.9698473 C159.870923,62.8431508 159.072561,63.1977904 158.919052,64.2744342 C158.047512,70.3564204 157.721785,71.6272584 157.082986,73.989125 C156.377611,76.611577 155.24637,77.9161638 153.250742,78.6387213 C152.764902,78.8196373 152.252653,78.9330556 151.720045,78.9800826 C151.540675,78.9933609 151.360755,79 151.174782,79 L124.966415,79 C120.628523,79 116.676333,77.4613842 113.675463,74.9324331 L118.006751,71.045229 L111.080651,72.1893705 C109.137844,69.593475 108,66.4221892 108,62.9969571 C108,54.1658224 115.598462,47 124.966415,47 C134.247983,47 140.229365,53.6501841 141.866253,61.6055084 C142.950726,66.8974394 144.96011,70.1423088 147.954377,71.226145 C150.243269,72.0554816 153.197371,71.6742855 154.873875,69.0518335 C155.778977,67.6332751 156.11791,64.823268 156.184486,64.0404053 C156.278022,62.9565691 155.492866,62.4680406 154.049103,62.3413441 C152.03972,62.1670672 150.203104,58.4873355 150.376421,56.4269956 C150.376421,56.4269956 150.435844,55.7581044 150.4496,55.5971058 C150.462805,55.4300213 150.582201,55.2291879 150.961849,55.2629368 C151.327742,55.2961324 151.387715,55.5639102 151.367357,55.8449662 C151.321139,56.4137174 152.139308,56.5675236 153.17041,56.7080517 L155.392727,57.0090251 C156.710491,57.1893878 158.054114,58.2665848 157.947923,59.531337 C158.054114,58.2665848 159.564453,57.4372482 160.88882,57.4842753 L163.130944,57.564498 C164.169198,57.6043327 165.007175,57.5976936 165.053943,57.0289424 C165.073751,56.7478864 165.180493,56.4939401 165.546385,56.5204966 C165.932086,56.5542454 166.011867,56.7749961 165.998662,56.9420806 Z M116.88938,66.0886378 C117.961563,66.0886378 118.830738,65.2156313 118.830738,64.1387231 C118.830738,63.061815 117.961563,62.1888085 116.88938,62.1888085 C115.817197,62.1888085 114.948021,63.061815 114.948021,64.1387231 C114.948021,65.2156313 115.817197,66.0886378 116.88938,66.0886378 Z" id="Combined-Shape" fill="#FFFFFF"></path>
                    <path d="M119.250262,36 C120.49289,36 121.5,37.0478182 121.5,38.34 C121.5,37.0478182 122.507635,36 123.750262,36 C124.99289,36 126,37.0478182 126,38.34 C126,42.1690909 121.5,41.4021818 121.5,45 C121.5,41.4021818 117,42.1690909 117,38.34 C117,37.0478182 118.007635,36 119.250262,36" id="Path" fill="#FFFFFF"></path>
                </g>
            </g>
        </g>
    </g>
</svg>